# Wall only: inclined profile reflected; flat top extended from 12 px to 16 px.
mtllib school_inverted_slopes.mtl
usemtl wall
v 0 0.928571428571 1
v 0 0.21428571429 0
v 0 1 0
v 0 1 1
v 1 1 1
v 1 1 0
v 1 0.21428571429 0
v 1 0.928571428571 1
v 0 1 0
v 1 1 0
v 1 1 1
v 0 1 1
v 0 0.21428571429 0
v 1 0.21428571429 0
v 1 1 0
v 0 1 0
v 0 0.928571428571 1
v 1 0.928571428571 1
v 1 0.21428571429 0
v 0 0.21428571429 0
v 0 1 1
v 1 1 1
v 1 0.928571428571 1
v 0 0.928571428571 1
vt 0 1
vt 1 1
vt 1 0
vt 0 0
vt 0 0
vt 1 0
vt 1 1
vt 0 1
vt 0 0
vt 1 0
vt 1 1
vt 0 1
vt 0 0
vt 1 0
vt 1 0
vt 0 0
vt 0 1
vt 1 1
vt 1 0
vt 0 0
vt 0 1
vt 1 1
vt 1 1
vt 0 1
f 4/4 3/3 2/2 1/1
f 8/8 7/7 6/6 5/5
f 12/12 11/11 10/10 9/9
f 16/16 15/15 14/14 13/13
f 20/20 19/19 18/18 17/17
f 24/24 23/23 22/22 21/21
